<svg width="20" height="19" viewBox="0 0 20 19" fill="none" xmlns="http://www.w3.org/2000/svg">
<path d="M6.75 0.25C6.53451 0.25 6.32785 0.335603 6.17548 0.487976C6.0231 0.640349 5.9375 0.847012 5.9375 1.0625V4.3125H3.5C2.63805 4.3125 1.8114 4.65491 1.2019 5.2644C0.59241 5.8739 0.25 6.70055 0.25 7.5625V15.6875C0.25 16.5495 0.59241 17.3761 1.2019 17.9856C1.8114 18.5951 2.63805 18.9375 3.5 18.9375H16.5C17.362 18.9375 18.1886 18.5951 18.7981 17.9856C19.4076 17.3761 19.75 16.5495 19.75 15.6875V7.5625C19.75 6.70055 19.4076 5.8739 18.7981 5.2644C18.1886 4.65491 17.362 4.3125 16.5 4.3125H14.0625V1.0625C14.0625 0.847012 13.9769 0.640349 13.8245 0.487976C13.6722 0.335603 13.4655 0.25 13.25 0.25H6.75ZM12.4375 4.3125H7.5625V1.875H12.4375V4.3125ZM10.8125 9.1875V10.8125H12.4375C12.653 10.8125 12.8597 10.8981 13.012 11.0505C13.1644 11.2028 13.25 11.4095 13.25 11.625C13.25 11.8405 13.1644 12.0472 13.012 12.1995C12.8597 12.3519 12.653 12.4375 12.4375 12.4375H10.8125V14.0625C10.8125 14.278 10.7269 14.4847 10.5745 14.637C10.4222 14.7894 10.2155 14.875 10 14.875C9.78451 14.875 9.57785 14.7894 9.42548 14.637C9.2731 14.4847 9.1875 14.278 9.1875 14.0625V12.4375H7.5625C7.34701 12.4375 7.14035 12.3519 6.98798 12.1995C6.8356 12.0472 6.75 11.8405 6.75 11.625C6.75 11.4095 6.8356 11.2028 6.98798 11.0505C7.14035 10.8981 7.34701 10.8125 7.5625 10.8125H9.1875V9.1875C9.1875 8.97201 9.2731 8.76535 9.42548 8.61298C9.57785 8.4606 9.78451 8.375 10 8.375C10.2155 8.375 10.4222 8.4606 10.5745 8.61298C10.7269 8.76535 10.8125 8.97201 10.8125 9.1875Z" fill="#FF532D"/>
</svg>
