<svg width="18" height="24" viewBox="0 0 18 24" fill="none" xmlns="http://www.w3.org/2000/svg">
<path d="M12 0.75C12 0.551088 11.921 0.360322 11.7803 0.21967C11.6397 0.0790176 11.4489 0 11.25 0L6.75 0C6.55109 0 6.36032 0.0790176 6.21967 0.21967C6.07902 0.360322 6 0.551088 6 0.75C6 0.948912 5.92098 1.13968 5.78033 1.28033C5.63968 1.42098 5.44891 1.5 5.25 1.5C5.05109 1.5 4.86032 1.57902 4.71967 1.71967C4.57902 1.86032 4.5 2.05109 4.5 2.25V3C4.5 3.19891 4.57902 3.38968 4.71967 3.53033C4.86032 3.67098 5.05109 3.75 5.25 3.75H12.75C12.9489 3.75 13.1397 3.67098 13.2803 3.53033C13.421 3.38968 13.5 3.19891 13.5 3V2.25C13.5 2.05109 13.421 1.86032 13.2803 1.71967C13.1397 1.57902 12.9489 1.5 12.75 1.5C12.5511 1.5 12.3603 1.42098 12.2197 1.28033C12.079 1.13968 12 0.948912 12 0.75Z" fill="#2D42FF"/>
<path d="M3.1275 1.5H2.25C1.65326 1.5 1.08097 1.73705 0.65901 2.15901C0.237053 2.58097 0 3.15326 0 3.75V21.75C0 22.3467 0.237053 22.919 0.65901 23.341C1.08097 23.7629 1.65326 24 2.25 24H15.75C16.3467 24 16.919 23.7629 17.341 23.341C17.7629 22.919 18 22.3467 18 21.75V3.75C18 3.15326 17.7629 2.58097 17.341 2.15901C16.919 1.73705 16.3467 1.5 15.75 1.5H14.8725C14.955 1.734 15 1.9875 15 2.25V3C15 3.59674 14.7629 4.16903 14.341 4.59099C13.919 5.01295 13.3467 5.25 12.75 5.25H5.25C4.65326 5.25 4.08097 5.01295 3.65901 4.59099C3.23705 4.16903 3 3.59674 3 3V2.25C3 1.9875 3.045 1.734 3.1275 1.5ZM13.281 11.781L8.781 16.281C8.71133 16.3508 8.62857 16.4063 8.53745 16.4441C8.44633 16.4819 8.34865 16.5013 8.25 16.5013C8.15135 16.5013 8.05367 16.4819 7.96255 16.4441C7.87143 16.4063 7.78867 16.3508 7.719 16.281L5.469 14.031C5.39927 13.9613 5.34395 13.8785 5.30621 13.7874C5.26848 13.6963 5.24905 13.5986 5.24905 13.5C5.24905 13.4014 5.26848 13.3037 5.30621 13.2126C5.34395 13.1215 5.39927 13.0387 5.469 12.969C5.60983 12.8282 5.80084 12.7491 6 12.7491C6.09862 12.7491 6.19627 12.7685 6.28738 12.8062C6.37848 12.844 6.46127 12.8993 6.531 12.969L8.25 14.6895L12.219 10.719C12.3598 10.5782 12.5508 10.4991 12.75 10.4991C12.9492 10.4991 13.1402 10.5782 13.281 10.719C13.4218 10.8598 13.5009 11.0508 13.5009 11.25C13.5009 11.4492 13.4218 11.6402 13.281 11.781Z" fill="#2D42FF"/>
</svg>
